PathFileType	4	(X/Y/Z)	C:\Users\italobelli\Desktop\GitHub\PTbot_officialCBL\Personal_Results\ABD23_noisy2.trc
DataRate	CameraRate	NumFrames	NumMarkers	Units	OrigDataRate	OrigDataStartFrame	OrigNumFrames
105.444444	105.444444	21	9	m	105.444444	238	950
Frame#	Time		gu		centelbow		EpL		centpxt8		centijc7		ij		ts		aa		ai
			X1	Y1	Z1	X2	Y2	Z2	X3	Y3	Z3	X4	Y4	Z4	X5	Y5	Z5	X6	Y6	Z6	X7	Y7	Z7	X8	Y8	Z8	X9	Y9	Z9

238	2.2476	-0.094186	0.048991	0.13481	-0.098092	0.03672	0.37906	-0.11358	0.064508	0.37585	-0.046816	-0.15316	-0.008669	-0.046816	0.031938	-0.008669	0	0	0	-0.12585	0.0039239	0.027635	-0.12911	0.064432	0.1302	-0.1289	-0.091496	0.089395
239	2.2571	-0.094119	0.049398	0.1344	-0.097992	0.04045	0.37873	-0.11347	0.068189	0.3751	-0.046816	-0.15316	-0.008669	-0.046816	0.031938	-0.008669	0	0	0	-0.12598	0.0037383	0.027697	-0.12918	0.064743	0.12997	-0.12906	-0.091368	0.089907
240	2.2666	-0.094052	0.049799	0.13399	-0.097892	0.044173	0.37837	-0.11336	0.07186	0.37431	-0.046816	-0.15316	-0.008669	-0.046816	0.031938	-0.008669	0	0	0	-0.1261	0.0035529	0.02776	-0.12926	0.065053	0.12973	-0.12923	-0.091237	0.09042
241	2.2761	-0.093987	0.050196	0.13357	-0.097792	0.047888	0.37798	-0.11325	0.075518	0.3735	-0.046816	-0.15316	-0.008669	-0.046816	0.031938	-0.008669	0	0	0	-0.12623	0.0033674	0.027825	-0.12933	0.065362	0.12949	-0.12939	-0.091103	0.090933
242	2.2856	-0.093922	0.050587	0.13315	-0.097691	0.05159	0.37755	-0.11314	0.079162	0.37265	-0.046816	-0.15316	-0.008669	-0.046816	0.031938	-0.008669	0	0	0	-0.12636	0.0031819	0.027891	-0.12941	0.06567	0.12926	-0.12955	-0.090965	0.091448
243	2.295	-0.093859	0.050973	0.13273	-0.097588	0.055279	0.37709	-0.11303	0.082788	0.37178	-0.046816	-0.15316	-0.008669	-0.046816	0.031938	-0.008669	0	0	0	-0.12649	0.0029962	0.027958	-0.12949	0.065977	0.12902	-0.12971	-0.090825	0.091964
244	2.3045	-0.093797	0.051353	0.13231	-0.097484	0.058951	0.3766	-0.11291	0.086395	0.37087	-0.046816	-0.15316	-0.008669	-0.046816	0.031938	-0.008669	0	0	0	-0.12662	0.0028103	0.028026	-0.12956	0.066282	0.12878	-0.12988	-0.090681	0.092481
245	2.314	-0.093737	0.051727	0.13189	-0.097377	0.062603	0.37608	-0.1128	0.08998	0.36994	-0.046816	-0.15316	-0.008669	-0.046816	0.031938	-0.008669	0	0	0	-0.12675	0.002624	0.028096	-0.12964	0.066586	0.12854	-0.13004	-0.090535	0.093
246	2.3235	-0.093679	0.052095	0.13147	-0.097268	0.066234	0.37553	-0.11268	0.09354	0.36899	-0.046816	-0.15316	-0.008669	-0.046816	0.031938	-0.008669	0	0	0	-0.12688	0.0024374	0.028168	-0.12972	0.066889	0.1283	-0.1302	-0.090387	0.093519
247	2.333	-0.093623	0.052456	0.13106	-0.097155	0.069841	0.37494	-0.11256	0.097073	0.36801	-0.046816	-0.15316	-0.008669	-0.046816	0.031938	-0.008669	0	0	0	-0.12701	0.0022503	0.028241	-0.12979	0.06719	0.12805	-0.13036	-0.090236	0.094041
248	2.3425	-0.093569	0.05281	0.13064	-0.097038	0.073421	0.37433	-0.11244	0.10058	0.36701	-0.046816	-0.15316	-0.008669	-0.046816	0.031938	-0.008669	0	0	0	-0.12714	0.0020626	0.028315	-0.12987	0.06749	0.12781	-0.13052	-0.090083	0.094564
249	2.3519	-0.093519	0.053158	0.13022	-0.096917	0.076972	0.37369	-0.11231	0.10405	0.36599	-0.046816	-0.15316	-0.008669	-0.046816	0.031938	-0.008669	0	0	0	-0.12726	0.0018743	0.028391	-0.12995	0.067788	0.12757	-0.13068	-0.089928	0.095089
250	2.3614	-0.093471	0.053498	0.12981	-0.096791	0.080491	0.37302	-0.11218	0.10749	0.36495	-0.046816	-0.15316	-0.008669	-0.046816	0.031938	-0.008669	0	0	0	-0.12739	0.0016853	0.028469	-0.13003	0.068085	0.12733	-0.13084	-0.089771	0.095617
251	2.3709	-0.093427	0.053831	0.1294	-0.09666	0.083976	0.37233	-0.11204	0.11089	0.36389	-0.046816	-0.15316	-0.008669	-0.046816	0.031938	-0.008669	0	0	0	-0.12752	0.0014955	0.028549	-0.13011	0.06838	0.12709	-0.13099	-0.089612	0.096146
252	2.3804	-0.093386	0.054156	0.12899	-0.096523	0.087424	0.37161	-0.1119	0.11425	0.36281	-0.046816	-0.15316	-0.008669	-0.046816	0.031938	-0.008669	0	0	0	-0.12765	0.0013049	0.02863	-0.1302	0.068673	0.12684	-0.13115	-0.089452	0.096678
253	2.3899	-0.093349	0.054473	0.12859	-0.09638	0.090833	0.37086	-0.11175	0.11757	0.36172	-0.046816	-0.15316	-0.008669	-0.046816	0.031938	-0.008669	0	0	0	-0.12777	0.0011132	0.028713	-0.13028	0.068964	0.1266	-0.1313	-0.08929	0.097212
254	2.3994	-0.093315	0.054782	0.12819	-0.096229	0.0942	0.37009	-0.1116	0.12084	0.36061	-0.046816	-0.15316	-0.008669	-0.046816	0.031938	-0.008669	0	0	0	-0.1279	0.00092057	0.028798	-0.13036	0.069253	0.12636	-0.13145	-0.089127	0.097748
255	2.4089	-0.093286	0.055083	0.1278	-0.096072	0.097523	0.36929	-0.11144	0.12407	0.35949	-0.046816	-0.15316	-0.008669	-0.046816	0.031938	-0.008669	0	0	0	-0.12802	0.00072679	0.028884	-0.13045	0.06954	0.12612	-0.1316	-0.088963	0.098287
256	2.4183	-0.093262	0.055375	0.12741	-0.095906	0.1008	0.36846	-0.11128	0.12725	0.35836	-0.046816	-0.15316	-0.008669	-0.046816	0.031938	-0.008669	0	0	0	-0.12815	0.00053183	0.028973	-0.13053	0.069826	0.12588	-0.13175	-0.088799	0.098829
257	2.4278	-0.093242	0.055658	0.12703	-0.095732	0.10403	0.36762	-0.11111	0.13038	0.35722	-0.046816	-0.15316	-0.008669	-0.046816	0.031938	-0.008669	0	0	0	-0.12827	0.00033559	0.029063	-0.13062	0.070109	0.12563	-0.13189	-0.088633	0.099374
258	2.4373	-0.093227	0.055932	0.12665	-0.095549	0.1072	0.36675	-0.11093	0.13346	0.35607	-0.046816	-0.15316	-0.008669	-0.046816	0.031938	-0.008669	0	0	0	-0.12839	0.00013801	0.029156	-0.1307	0.07039	0.12539	-0.13203	-0.088467	0.099922
